<mxfile host="app.diagrams.net" modified="2023-05-08T16:50:51.337Z" agent="Mozilla/5.0 (Windows NT 10.0; Win64; x64) AppleWebKit/537.36 (KHTML, like Gecko) Chrome/113.0.0.0 Safari/537.36 Edg/113.0.1774.35" etag="mpOCakCD9diOuztSj85Q" version="21.2.9" type="github">
  <diagram name="第 1 页" id="DBW6RSGpC2fgswphdQzU">
    <mxGraphModel dx="1206" dy="663" grid="0" gridSize="10" guides="1" tooltips="1" connect="1" arrows="1" fold="1" page="1" pageScale="1" pageWidth="2339" pageHeight="3300" math="0" shadow="0">
      <root>
        <mxCell id="0" />
        <mxCell id="1" parent="0" />
        <mxCell id="CNRmRYivpXj3O9G0c0TQ-1" value="" style="whiteSpace=wrap;html=1;aspect=fixed;" vertex="1" parent="1">
          <mxGeometry x="331" y="88" width="148" height="148" as="geometry" />
        </mxCell>
        <mxCell id="CNRmRYivpXj3O9G0c0TQ-2" value="&lt;b&gt;90，-180&lt;/b&gt;" style="text;html=1;strokeColor=none;fillColor=none;align=center;verticalAlign=middle;whiteSpace=wrap;rounded=0;" vertex="1" parent="1">
          <mxGeometry x="271" y="69" width="60" height="30" as="geometry" />
        </mxCell>
        <mxCell id="CNRmRYivpXj3O9G0c0TQ-3" value="&lt;b&gt;-90，-180&lt;/b&gt;" style="text;html=1;strokeColor=none;fillColor=none;align=center;verticalAlign=middle;whiteSpace=wrap;rounded=0;" vertex="1" parent="1">
          <mxGeometry x="267" y="236" width="60" height="30" as="geometry" />
        </mxCell>
        <mxCell id="CNRmRYivpXj3O9G0c0TQ-4" value="&lt;b&gt;90，180&lt;/b&gt;" style="text;html=1;strokeColor=none;fillColor=none;align=center;verticalAlign=middle;whiteSpace=wrap;rounded=0;" vertex="1" parent="1">
          <mxGeometry x="486" y="58" width="60" height="30" as="geometry" />
        </mxCell>
        <mxCell id="CNRmRYivpXj3O9G0c0TQ-5" value="&lt;b&gt;-90，180&lt;/b&gt;" style="text;html=1;strokeColor=none;fillColor=none;align=center;verticalAlign=middle;whiteSpace=wrap;rounded=0;" vertex="1" parent="1">
          <mxGeometry x="486" y="236" width="60" height="30" as="geometry" />
        </mxCell>
        <mxCell id="CNRmRYivpXj3O9G0c0TQ-6" value="" style="shape=table;startSize=0;container=1;collapsible=0;childLayout=tableLayout;" vertex="1" parent="1">
          <mxGeometry x="722" y="74" width="225" height="212" as="geometry" />
        </mxCell>
        <mxCell id="CNRmRYivpXj3O9G0c0TQ-7" value="" style="shape=tableRow;horizontal=0;startSize=0;swimlaneHead=0;swimlaneBody=0;strokeColor=inherit;top=0;left=0;bottom=0;right=0;collapsible=0;dropTarget=0;fillColor=none;points=[[0,0.5],[1,0.5]];portConstraint=eastwest;" vertex="1" parent="CNRmRYivpXj3O9G0c0TQ-6">
          <mxGeometry width="225" height="106" as="geometry" />
        </mxCell>
        <mxCell id="CNRmRYivpXj3O9G0c0TQ-8" value="01" style="shape=partialRectangle;html=1;whiteSpace=wrap;connectable=0;strokeColor=inherit;overflow=hidden;fillColor=none;top=0;left=0;bottom=0;right=0;pointerEvents=1;" vertex="1" parent="CNRmRYivpXj3O9G0c0TQ-7">
          <mxGeometry width="113" height="106" as="geometry">
            <mxRectangle width="113" height="106" as="alternateBounds" />
          </mxGeometry>
        </mxCell>
        <mxCell id="CNRmRYivpXj3O9G0c0TQ-9" value="11" style="shape=partialRectangle;html=1;whiteSpace=wrap;connectable=0;strokeColor=inherit;overflow=hidden;fillColor=none;top=0;left=0;bottom=0;right=0;pointerEvents=1;" vertex="1" parent="CNRmRYivpXj3O9G0c0TQ-7">
          <mxGeometry x="113" width="112" height="106" as="geometry">
            <mxRectangle width="112" height="106" as="alternateBounds" />
          </mxGeometry>
        </mxCell>
        <mxCell id="CNRmRYivpXj3O9G0c0TQ-10" value="" style="shape=tableRow;horizontal=0;startSize=0;swimlaneHead=0;swimlaneBody=0;strokeColor=inherit;top=0;left=0;bottom=0;right=0;collapsible=0;dropTarget=0;fillColor=none;points=[[0,0.5],[1,0.5]];portConstraint=eastwest;" vertex="1" parent="CNRmRYivpXj3O9G0c0TQ-6">
          <mxGeometry y="106" width="225" height="106" as="geometry" />
        </mxCell>
        <mxCell id="CNRmRYivpXj3O9G0c0TQ-11" value="00" style="shape=partialRectangle;html=1;whiteSpace=wrap;connectable=0;strokeColor=inherit;overflow=hidden;fillColor=none;top=0;left=0;bottom=0;right=0;pointerEvents=1;" vertex="1" parent="CNRmRYivpXj3O9G0c0TQ-10">
          <mxGeometry width="113" height="106" as="geometry">
            <mxRectangle width="113" height="106" as="alternateBounds" />
          </mxGeometry>
        </mxCell>
        <mxCell id="CNRmRYivpXj3O9G0c0TQ-12" value="10" style="shape=partialRectangle;html=1;whiteSpace=wrap;connectable=0;strokeColor=inherit;overflow=hidden;fillColor=none;top=0;left=0;bottom=0;right=0;pointerEvents=1;" vertex="1" parent="CNRmRYivpXj3O9G0c0TQ-10">
          <mxGeometry x="113" width="112" height="106" as="geometry">
            <mxRectangle width="112" height="106" as="alternateBounds" />
          </mxGeometry>
        </mxCell>
        <mxCell id="CNRmRYivpXj3O9G0c0TQ-13" value="&lt;b&gt;90，-180&lt;/b&gt;" style="text;html=1;strokeColor=none;fillColor=none;align=center;verticalAlign=middle;whiteSpace=wrap;rounded=0;" vertex="1" parent="1">
          <mxGeometry x="659" y="44" width="60" height="30" as="geometry" />
        </mxCell>
        <mxCell id="CNRmRYivpXj3O9G0c0TQ-14" value="&lt;b&gt;-90，-180&lt;/b&gt;" style="text;html=1;strokeColor=none;fillColor=none;align=center;verticalAlign=middle;whiteSpace=wrap;rounded=0;" vertex="1" parent="1">
          <mxGeometry x="659" y="286" width="60" height="30" as="geometry" />
        </mxCell>
        <mxCell id="CNRmRYivpXj3O9G0c0TQ-15" value="&lt;b&gt;90，180&lt;/b&gt;" style="text;html=1;strokeColor=none;fillColor=none;align=center;verticalAlign=middle;whiteSpace=wrap;rounded=0;" vertex="1" parent="1">
          <mxGeometry x="813" y="359" width="60" height="30" as="geometry" />
        </mxCell>
        <mxCell id="CNRmRYivpXj3O9G0c0TQ-16" value="&lt;b&gt;-90，180&lt;/b&gt;" style="text;html=1;strokeColor=none;fillColor=none;align=center;verticalAlign=middle;whiteSpace=wrap;rounded=0;" vertex="1" parent="1">
          <mxGeometry x="809" y="696" width="60" height="30" as="geometry" />
        </mxCell>
        <mxCell id="CNRmRYivpXj3O9G0c0TQ-18" value="" style="endArrow=classic;html=1;rounded=0;" edge="1" parent="1">
          <mxGeometry width="50" height="50" relative="1" as="geometry">
            <mxPoint x="238" y="585" as="sourcePoint" />
            <mxPoint x="238" y="527" as="targetPoint" />
          </mxGeometry>
        </mxCell>
        <mxCell id="CNRmRYivpXj3O9G0c0TQ-19" value="" style="endArrow=classic;html=1;rounded=0;" edge="1" parent="1">
          <mxGeometry width="50" height="50" relative="1" as="geometry">
            <mxPoint x="777" y="222" as="sourcePoint" />
            <mxPoint x="777" y="133" as="targetPoint" />
          </mxGeometry>
        </mxCell>
        <mxCell id="CNRmRYivpXj3O9G0c0TQ-20" value="" style="endArrow=classic;html=1;rounded=0;" edge="1" parent="1">
          <mxGeometry width="50" height="50" relative="1" as="geometry">
            <mxPoint x="891" y="222" as="sourcePoint" />
            <mxPoint x="891" y="133" as="targetPoint" />
          </mxGeometry>
        </mxCell>
        <mxCell id="CNRmRYivpXj3O9G0c0TQ-21" value="" style="endArrow=classic;html=1;rounded=0;" edge="1" parent="1">
          <mxGeometry width="50" height="50" relative="1" as="geometry">
            <mxPoint x="146" y="679" as="sourcePoint" />
            <mxPoint x="200" y="739" as="targetPoint" />
          </mxGeometry>
        </mxCell>
        <mxCell id="CNRmRYivpXj3O9G0c0TQ-22" value="" style="endArrow=classic;html=1;rounded=0;" edge="1" parent="1">
          <mxGeometry width="50" height="50" relative="1" as="geometry">
            <mxPoint x="788" y="130" as="sourcePoint" />
            <mxPoint x="881" y="230" as="targetPoint" />
          </mxGeometry>
        </mxCell>
        <mxCell id="CNRmRYivpXj3O9G0c0TQ-23" value="" style="shape=table;startSize=0;container=1;collapsible=0;childLayout=tableLayout;" vertex="1" parent="1">
          <mxGeometry x="494" y="391" width="305" height="305" as="geometry" />
        </mxCell>
        <mxCell id="CNRmRYivpXj3O9G0c0TQ-24" value="" style="shape=tableRow;horizontal=0;startSize=0;swimlaneHead=0;swimlaneBody=0;strokeColor=inherit;top=0;left=0;bottom=0;right=0;collapsible=0;dropTarget=0;fillColor=none;points=[[0,0.5],[1,0.5]];portConstraint=eastwest;" vertex="1" parent="CNRmRYivpXj3O9G0c0TQ-23">
          <mxGeometry width="305" height="76" as="geometry" />
        </mxCell>
        <mxCell id="CNRmRYivpXj3O9G0c0TQ-25" value="0101&lt;br&gt;" style="shape=partialRectangle;html=1;whiteSpace=wrap;connectable=0;strokeColor=inherit;overflow=hidden;fillColor=none;top=0;left=0;bottom=0;right=0;pointerEvents=1;" vertex="1" parent="CNRmRYivpXj3O9G0c0TQ-24">
          <mxGeometry width="76" height="76" as="geometry">
            <mxRectangle width="76" height="76" as="alternateBounds" />
          </mxGeometry>
        </mxCell>
        <mxCell id="CNRmRYivpXj3O9G0c0TQ-26" value="0111" style="shape=partialRectangle;html=1;whiteSpace=wrap;connectable=0;strokeColor=inherit;overflow=hidden;fillColor=none;top=0;left=0;bottom=0;right=0;pointerEvents=1;" vertex="1" parent="CNRmRYivpXj3O9G0c0TQ-24">
          <mxGeometry x="76" width="77" height="76" as="geometry">
            <mxRectangle width="77" height="76" as="alternateBounds" />
          </mxGeometry>
        </mxCell>
        <mxCell id="CNRmRYivpXj3O9G0c0TQ-27" value="1101" style="shape=partialRectangle;html=1;whiteSpace=wrap;connectable=0;strokeColor=inherit;overflow=hidden;fillColor=none;top=0;left=0;bottom=0;right=0;pointerEvents=1;" vertex="1" parent="CNRmRYivpXj3O9G0c0TQ-24">
          <mxGeometry x="153" width="76" height="76" as="geometry">
            <mxRectangle width="76" height="76" as="alternateBounds" />
          </mxGeometry>
        </mxCell>
        <mxCell id="CNRmRYivpXj3O9G0c0TQ-28" value="1111" style="shape=partialRectangle;html=1;whiteSpace=wrap;connectable=0;strokeColor=inherit;overflow=hidden;fillColor=none;top=0;left=0;bottom=0;right=0;pointerEvents=1;" vertex="1" parent="CNRmRYivpXj3O9G0c0TQ-24">
          <mxGeometry x="229" width="76" height="76" as="geometry">
            <mxRectangle width="76" height="76" as="alternateBounds" />
          </mxGeometry>
        </mxCell>
        <mxCell id="CNRmRYivpXj3O9G0c0TQ-29" value="" style="shape=tableRow;horizontal=0;startSize=0;swimlaneHead=0;swimlaneBody=0;strokeColor=inherit;top=0;left=0;bottom=0;right=0;collapsible=0;dropTarget=0;fillColor=none;points=[[0,0.5],[1,0.5]];portConstraint=eastwest;" vertex="1" parent="CNRmRYivpXj3O9G0c0TQ-23">
          <mxGeometry y="76" width="305" height="77" as="geometry" />
        </mxCell>
        <mxCell id="CNRmRYivpXj3O9G0c0TQ-30" value="0100" style="shape=partialRectangle;html=1;whiteSpace=wrap;connectable=0;strokeColor=inherit;overflow=hidden;fillColor=none;top=0;left=0;bottom=0;right=0;pointerEvents=1;" vertex="1" parent="CNRmRYivpXj3O9G0c0TQ-29">
          <mxGeometry width="76" height="77" as="geometry">
            <mxRectangle width="76" height="77" as="alternateBounds" />
          </mxGeometry>
        </mxCell>
        <mxCell id="CNRmRYivpXj3O9G0c0TQ-31" value="0110" style="shape=partialRectangle;html=1;whiteSpace=wrap;connectable=0;strokeColor=inherit;overflow=hidden;fillColor=none;top=0;left=0;bottom=0;right=0;pointerEvents=1;" vertex="1" parent="CNRmRYivpXj3O9G0c0TQ-29">
          <mxGeometry x="76" width="77" height="77" as="geometry">
            <mxRectangle width="77" height="77" as="alternateBounds" />
          </mxGeometry>
        </mxCell>
        <mxCell id="CNRmRYivpXj3O9G0c0TQ-32" value="1100" style="shape=partialRectangle;html=1;whiteSpace=wrap;connectable=0;strokeColor=inherit;overflow=hidden;fillColor=none;top=0;left=0;bottom=0;right=0;pointerEvents=1;" vertex="1" parent="CNRmRYivpXj3O9G0c0TQ-29">
          <mxGeometry x="153" width="76" height="77" as="geometry">
            <mxRectangle width="76" height="77" as="alternateBounds" />
          </mxGeometry>
        </mxCell>
        <mxCell id="CNRmRYivpXj3O9G0c0TQ-33" value="1110" style="shape=partialRectangle;html=1;whiteSpace=wrap;connectable=0;strokeColor=inherit;overflow=hidden;fillColor=none;top=0;left=0;bottom=0;right=0;pointerEvents=1;" vertex="1" parent="CNRmRYivpXj3O9G0c0TQ-29">
          <mxGeometry x="229" width="76" height="77" as="geometry">
            <mxRectangle width="76" height="77" as="alternateBounds" />
          </mxGeometry>
        </mxCell>
        <mxCell id="CNRmRYivpXj3O9G0c0TQ-34" value="" style="shape=tableRow;horizontal=0;startSize=0;swimlaneHead=0;swimlaneBody=0;strokeColor=inherit;top=0;left=0;bottom=0;right=0;collapsible=0;dropTarget=0;fillColor=none;points=[[0,0.5],[1,0.5]];portConstraint=eastwest;" vertex="1" parent="CNRmRYivpXj3O9G0c0TQ-23">
          <mxGeometry y="153" width="305" height="76" as="geometry" />
        </mxCell>
        <mxCell id="CNRmRYivpXj3O9G0c0TQ-35" value="0001" style="shape=partialRectangle;html=1;whiteSpace=wrap;connectable=0;strokeColor=inherit;overflow=hidden;fillColor=none;top=0;left=0;bottom=0;right=0;pointerEvents=1;" vertex="1" parent="CNRmRYivpXj3O9G0c0TQ-34">
          <mxGeometry width="76" height="76" as="geometry">
            <mxRectangle width="76" height="76" as="alternateBounds" />
          </mxGeometry>
        </mxCell>
        <mxCell id="CNRmRYivpXj3O9G0c0TQ-36" value="0011" style="shape=partialRectangle;html=1;whiteSpace=wrap;connectable=0;strokeColor=inherit;overflow=hidden;fillColor=none;top=0;left=0;bottom=0;right=0;pointerEvents=1;" vertex="1" parent="CNRmRYivpXj3O9G0c0TQ-34">
          <mxGeometry x="76" width="77" height="76" as="geometry">
            <mxRectangle width="77" height="76" as="alternateBounds" />
          </mxGeometry>
        </mxCell>
        <mxCell id="CNRmRYivpXj3O9G0c0TQ-37" value="1001" style="shape=partialRectangle;html=1;whiteSpace=wrap;connectable=0;strokeColor=inherit;overflow=hidden;fillColor=none;top=0;left=0;bottom=0;right=0;pointerEvents=1;" vertex="1" parent="CNRmRYivpXj3O9G0c0TQ-34">
          <mxGeometry x="153" width="76" height="76" as="geometry">
            <mxRectangle width="76" height="76" as="alternateBounds" />
          </mxGeometry>
        </mxCell>
        <mxCell id="CNRmRYivpXj3O9G0c0TQ-38" value="1011" style="shape=partialRectangle;html=1;whiteSpace=wrap;connectable=0;strokeColor=inherit;overflow=hidden;fillColor=none;top=0;left=0;bottom=0;right=0;pointerEvents=1;" vertex="1" parent="CNRmRYivpXj3O9G0c0TQ-34">
          <mxGeometry x="229" width="76" height="76" as="geometry">
            <mxRectangle width="76" height="76" as="alternateBounds" />
          </mxGeometry>
        </mxCell>
        <mxCell id="CNRmRYivpXj3O9G0c0TQ-39" value="" style="shape=tableRow;horizontal=0;startSize=0;swimlaneHead=0;swimlaneBody=0;strokeColor=inherit;top=0;left=0;bottom=0;right=0;collapsible=0;dropTarget=0;fillColor=none;points=[[0,0.5],[1,0.5]];portConstraint=eastwest;" vertex="1" parent="CNRmRYivpXj3O9G0c0TQ-23">
          <mxGeometry y="229" width="305" height="76" as="geometry" />
        </mxCell>
        <mxCell id="CNRmRYivpXj3O9G0c0TQ-40" value="0000" style="shape=partialRectangle;html=1;whiteSpace=wrap;connectable=0;strokeColor=inherit;overflow=hidden;fillColor=none;top=0;left=0;bottom=0;right=0;pointerEvents=1;" vertex="1" parent="CNRmRYivpXj3O9G0c0TQ-39">
          <mxGeometry width="76" height="76" as="geometry">
            <mxRectangle width="76" height="76" as="alternateBounds" />
          </mxGeometry>
        </mxCell>
        <mxCell id="CNRmRYivpXj3O9G0c0TQ-41" value="0010" style="shape=partialRectangle;html=1;whiteSpace=wrap;connectable=0;strokeColor=inherit;overflow=hidden;fillColor=none;top=0;left=0;bottom=0;right=0;pointerEvents=1;" vertex="1" parent="CNRmRYivpXj3O9G0c0TQ-39">
          <mxGeometry x="76" width="77" height="76" as="geometry">
            <mxRectangle width="77" height="76" as="alternateBounds" />
          </mxGeometry>
        </mxCell>
        <mxCell id="CNRmRYivpXj3O9G0c0TQ-42" value="1000" style="shape=partialRectangle;html=1;whiteSpace=wrap;connectable=0;strokeColor=inherit;overflow=hidden;fillColor=none;top=0;left=0;bottom=0;right=0;pointerEvents=1;" vertex="1" parent="CNRmRYivpXj3O9G0c0TQ-39">
          <mxGeometry x="153" width="76" height="76" as="geometry">
            <mxRectangle width="76" height="76" as="alternateBounds" />
          </mxGeometry>
        </mxCell>
        <mxCell id="CNRmRYivpXj3O9G0c0TQ-43" value="1010" style="shape=partialRectangle;html=1;whiteSpace=wrap;connectable=0;strokeColor=inherit;overflow=hidden;fillColor=none;top=0;left=0;bottom=0;right=0;pointerEvents=1;" vertex="1" parent="CNRmRYivpXj3O9G0c0TQ-39">
          <mxGeometry x="229" width="76" height="76" as="geometry">
            <mxRectangle width="76" height="76" as="alternateBounds" />
          </mxGeometry>
        </mxCell>
        <mxCell id="CNRmRYivpXj3O9G0c0TQ-44" value="" style="endArrow=classic;html=1;rounded=0;" edge="1" parent="1">
          <mxGeometry width="50" height="50" relative="1" as="geometry">
            <mxPoint x="532" y="647" as="sourcePoint" />
            <mxPoint x="532" y="589" as="targetPoint" />
          </mxGeometry>
        </mxCell>
        <mxCell id="CNRmRYivpXj3O9G0c0TQ-45" value="" style="endArrow=classic;html=1;rounded=0;" edge="1" parent="1">
          <mxGeometry width="50" height="50" relative="1" as="geometry">
            <mxPoint x="531" y="497" as="sourcePoint" />
            <mxPoint x="531" y="439" as="targetPoint" />
          </mxGeometry>
        </mxCell>
        <mxCell id="CNRmRYivpXj3O9G0c0TQ-46" value="" style="endArrow=classic;html=1;rounded=0;" edge="1" parent="1">
          <mxGeometry width="50" height="50" relative="1" as="geometry">
            <mxPoint x="608" y="497" as="sourcePoint" />
            <mxPoint x="608" y="439" as="targetPoint" />
          </mxGeometry>
        </mxCell>
        <mxCell id="CNRmRYivpXj3O9G0c0TQ-47" value="" style="endArrow=classic;html=1;rounded=0;" edge="1" parent="1">
          <mxGeometry width="50" height="50" relative="1" as="geometry">
            <mxPoint x="608" y="648" as="sourcePoint" />
            <mxPoint x="608" y="590" as="targetPoint" />
          </mxGeometry>
        </mxCell>
        <mxCell id="CNRmRYivpXj3O9G0c0TQ-48" value="" style="endArrow=classic;html=1;rounded=0;" edge="1" parent="1">
          <mxGeometry width="50" height="50" relative="1" as="geometry">
            <mxPoint x="685" y="647" as="sourcePoint" />
            <mxPoint x="685" y="589" as="targetPoint" />
          </mxGeometry>
        </mxCell>
        <mxCell id="CNRmRYivpXj3O9G0c0TQ-49" value="" style="endArrow=classic;html=1;rounded=0;" edge="1" parent="1">
          <mxGeometry width="50" height="50" relative="1" as="geometry">
            <mxPoint x="763" y="650" as="sourcePoint" />
            <mxPoint x="763" y="592" as="targetPoint" />
          </mxGeometry>
        </mxCell>
        <mxCell id="CNRmRYivpXj3O9G0c0TQ-50" value="" style="endArrow=classic;html=1;rounded=0;" edge="1" parent="1">
          <mxGeometry width="50" height="50" relative="1" as="geometry">
            <mxPoint x="761" y="499" as="sourcePoint" />
            <mxPoint x="761" y="441" as="targetPoint" />
          </mxGeometry>
        </mxCell>
        <mxCell id="CNRmRYivpXj3O9G0c0TQ-51" value="" style="endArrow=classic;html=1;rounded=0;" edge="1" parent="1">
          <mxGeometry width="50" height="50" relative="1" as="geometry">
            <mxPoint x="685" y="496" as="sourcePoint" />
            <mxPoint x="685" y="438" as="targetPoint" />
          </mxGeometry>
        </mxCell>
        <mxCell id="CNRmRYivpXj3O9G0c0TQ-52" value="" style="endArrow=classic;html=1;rounded=0;" edge="1" parent="1">
          <mxGeometry width="50" height="50" relative="1" as="geometry">
            <mxPoint x="546" y="588" as="sourcePoint" />
            <mxPoint x="600" y="648" as="targetPoint" />
          </mxGeometry>
        </mxCell>
        <mxCell id="CNRmRYivpXj3O9G0c0TQ-53" value="" style="endArrow=classic;html=1;rounded=0;" edge="1" parent="1">
          <mxGeometry width="50" height="50" relative="1" as="geometry">
            <mxPoint x="546" y="434" as="sourcePoint" />
            <mxPoint x="600" y="494" as="targetPoint" />
          </mxGeometry>
        </mxCell>
        <mxCell id="CNRmRYivpXj3O9G0c0TQ-54" value="" style="endArrow=classic;html=1;rounded=0;" edge="1" parent="1">
          <mxGeometry width="50" height="50" relative="1" as="geometry">
            <mxPoint x="700" y="437" as="sourcePoint" />
            <mxPoint x="754" y="497" as="targetPoint" />
          </mxGeometry>
        </mxCell>
        <mxCell id="CNRmRYivpXj3O9G0c0TQ-55" value="" style="endArrow=classic;html=1;rounded=0;" edge="1" parent="1">
          <mxGeometry width="50" height="50" relative="1" as="geometry">
            <mxPoint x="700" y="591" as="sourcePoint" />
            <mxPoint x="754" y="651" as="targetPoint" />
          </mxGeometry>
        </mxCell>
        <mxCell id="CNRmRYivpXj3O9G0c0TQ-56" value="" style="endArrow=classic;html=1;rounded=0;" edge="1" parent="1">
          <mxGeometry width="50" height="50" relative="1" as="geometry">
            <mxPoint x="297" y="711" as="sourcePoint" />
            <mxPoint x="241" y="650" as="targetPoint" />
          </mxGeometry>
        </mxCell>
        <mxCell id="CNRmRYivpXj3O9G0c0TQ-57" value="" style="endArrow=classic;html=1;rounded=0;" edge="1" parent="1">
          <mxGeometry width="50" height="50" relative="1" as="geometry">
            <mxPoint x="597" y="574" as="sourcePoint" />
            <mxPoint x="541" y="513" as="targetPoint" />
          </mxGeometry>
        </mxCell>
        <mxCell id="CNRmRYivpXj3O9G0c0TQ-58" value="" style="endArrow=classic;html=1;rounded=0;" edge="1" parent="1">
          <mxGeometry width="50" height="50" relative="1" as="geometry">
            <mxPoint x="749" y="574" as="sourcePoint" />
            <mxPoint x="693" y="513" as="targetPoint" />
          </mxGeometry>
        </mxCell>
        <mxCell id="CNRmRYivpXj3O9G0c0TQ-59" value="" style="endArrow=classic;html=1;rounded=0;" edge="1" parent="1">
          <mxGeometry width="50" height="50" relative="1" as="geometry">
            <mxPoint x="622" y="430" as="sourcePoint" />
            <mxPoint x="671" y="652" as="targetPoint" />
          </mxGeometry>
        </mxCell>
        <mxCell id="CNRmRYivpXj3O9G0c0TQ-60" value="&lt;b&gt;90，-180&lt;/b&gt;" style="text;html=1;strokeColor=none;fillColor=none;align=center;verticalAlign=middle;whiteSpace=wrap;rounded=0;" vertex="1" parent="1">
          <mxGeometry x="429" y="359" width="60" height="30" as="geometry" />
        </mxCell>
        <mxCell id="CNRmRYivpXj3O9G0c0TQ-61" value="&lt;b&gt;-90，-180&lt;/b&gt;" style="text;html=1;strokeColor=none;fillColor=none;align=center;verticalAlign=middle;whiteSpace=wrap;rounded=0;" vertex="1" parent="1">
          <mxGeometry x="426" y="694" width="60" height="30" as="geometry" />
        </mxCell>
      </root>
    </mxGraphModel>
  </diagram>
</mxfile>
